<?xml version="1.0" encoding="iso-8859-1"?>
<!-- Uploaded to: SVG Repo, www.svgrepo.com, Generator: SVG Repo Mixer Tools -->
<svg fill="#000000" height="800px" width="800px" version="1.1" id="Layer_1" xmlns="http://www.w3.org/2000/svg" xmlns:xlink="http://www.w3.org/1999/xlink" 
	 viewBox="0 0 512 512" xml:space="preserve">
<g>
	<g>
		<path d="M495.304,189.217h-22.261v283.826c0,5.882-1.205,11.448-3.076,16.696h25.337c9.217,0,16.696-7.479,16.696-16.696v-267.13
			C512,196.696,504.521,189.217,495.304,189.217z"/>
	</g>
</g>
<g>
	<g>
		<path d="M38.957,473.043V189.217H16.696C7.479,189.217,0,196.696,0,205.913v267.13c0,9.217,7.479,16.696,16.696,16.696h25.337
			C40.163,484.491,38.957,478.926,38.957,473.043z"/>
	</g>
</g>
<g>
	<g>
		<path d="M422.957,22.261h-66.783c-9.217,0-16.696,7.479-16.696,16.696v50.087h-33.391V38.957c0-9.217-7.479-16.696-16.696-16.696
			h-66.783c-9.217,0-16.696,7.479-16.696,16.696v50.087h-33.391V38.957c0-9.217-7.479-16.696-16.696-16.696H89.044
			c-9.217,0-16.696,7.479-16.696,16.696v434.087c0,9.217,7.479,16.696,16.696,16.696h333.913c9.217,0,16.696-7.479,16.696-16.696
			V38.957C439.652,29.739,432.174,22.261,422.957,22.261z M155.826,205.913c0-18.413,14.978-33.391,33.391-33.391
			s33.391,14.978,33.391,33.391v33.391h-66.783V205.913z M239.304,456.348h-66.783V372.87c0-40.316,28.724-74.04,66.783-81.795
			V456.348z M339.478,456.348h-66.783V291.074c38.058,7.756,66.783,41.48,66.783,81.795V456.348z M356.174,239.304h-66.783v-33.391
			c0-18.413,14.978-33.391,33.391-33.391s33.391,14.978,33.391,33.391V239.304z"/>
	</g>
</g>
</svg>